<svg width="25" height="25" viewBox="0 0 25 25" fill="none" xmlns="http://www.w3.org/2000/svg">
<path d="M23.4375 7.8125H1.5625C0.699561 7.8125 0 7.11294 0 6.25V3.125C0 2.26206 0.699561 1.5625 1.5625 1.5625H23.4375C24.3004 1.5625 25 2.26206 25 3.125V6.25C25 7.11294 24.3004 7.8125 23.4375 7.8125ZM21.0938 3.51562C20.4465 3.51562 19.9219 4.04028 19.9219 4.6875C19.9219 5.33472 20.4465 5.85938 21.0938 5.85938C21.741 5.85938 22.2656 5.33472 22.2656 4.6875C22.2656 4.04028 21.741 3.51562 21.0938 3.51562ZM17.9688 3.51562C17.3215 3.51562 16.7969 4.04028 16.7969 4.6875C16.7969 5.33472 17.3215 5.85938 17.9688 5.85938C18.616 5.85938 19.1406 5.33472 19.1406 4.6875C19.1406 4.04028 18.616 3.51562 17.9688 3.51562ZM23.4375 15.625H1.5625C0.699561 15.625 0 14.9254 0 14.0625V10.9375C0 10.0746 0.699561 9.375 1.5625 9.375H23.4375C24.3004 9.375 25 10.0746 25 10.9375V14.0625C25 14.9254 24.3004 15.625 23.4375 15.625ZM21.0938 11.3281C20.4465 11.3281 19.9219 11.8528 19.9219 12.5C19.9219 13.1472 20.4465 13.6719 21.0938 13.6719C21.741 13.6719 22.2656 13.1472 22.2656 12.5C22.2656 11.8528 21.741 11.3281 21.0938 11.3281ZM17.9688 11.3281C17.3215 11.3281 16.7969 11.8528 16.7969 12.5C16.7969 13.1472 17.3215 13.6719 17.9688 13.6719C18.616 13.6719 19.1406 13.1472 19.1406 12.5C19.1406 11.8528 18.616 11.3281 17.9688 11.3281ZM23.4375 23.4375H1.5625C0.699561 23.4375 0 22.7379 0 21.875V18.75C0 17.8871 0.699561 17.1875 1.5625 17.1875H23.4375C24.3004 17.1875 25 17.8871 25 18.75V21.875C25 22.7379 24.3004 23.4375 23.4375 23.4375ZM21.0938 19.1406C20.4465 19.1406 19.9219 19.6653 19.9219 20.3125C19.9219 20.9597 20.4465 21.4844 21.0938 21.4844C21.741 21.4844 22.2656 20.9597 22.2656 20.3125C22.2656 19.6653 21.741 19.1406 21.0938 19.1406ZM17.9688 19.1406C17.3215 19.1406 16.7969 19.6653 16.7969 20.3125C16.7969 20.9597 17.3215 21.4844 17.9688 21.4844C18.616 21.4844 19.1406 20.9597 19.1406 20.3125C19.1406 19.6653 18.616 19.1406 17.9688 19.1406Z" fill="black"/>
</svg>
