<svg width="25" height="19" viewBox="0 0 25 19" fill="none" xmlns="http://www.w3.org/2000/svg">
<path d="M24.2188 6.375H21.875V4.03125C21.875 3.60156 21.5234 3.25 21.0938 3.25H18.75V0.90625C18.75 0.476562 18.3984 0.125 17.9688 0.125H7.03125C6.60156 0.125 6.25 0.476562 6.25 0.90625V3.25H3.90625C3.47656 3.25 3.125 3.60156 3.125 4.03125V6.375H0.78125C0.351562 6.375 0 6.72656 0 7.15625V18.0938C0 18.5234 0.351562 18.875 0.78125 18.875H4.6875V12.625H6.25V18.875H9.375V12.625H10.9375V18.875H14.0625V12.625H15.625V18.875H18.75V12.625H20.3125V18.875H24.2188C24.6484 18.875 25 18.5234 25 18.0938V7.15625C25 6.72656 24.6484 6.375 24.2188 6.375Z" fill="black"/>
</svg>
