<svg width="23" height="23" viewBox="0 0 23 23" fill="none" xmlns="http://www.w3.org/2000/svg">
<path d="M21.751 5.34478L17.6552 1.24897C17.2157 0.809435 16.6195 0.562503 15.9979 0.5625H2.90625C1.61182 0.5625 0.5625 1.61182 0.5625 2.90625V20.0938C0.5625 21.3882 1.61182 22.4375 2.90625 22.4375H20.0938C21.3882 22.4375 22.4375 21.3882 22.4375 20.0938V7.00205C22.4375 6.38045 22.1906 5.78431 21.751 5.34478ZM11.5 19.3125C9.77412 19.3125 8.375 17.9134 8.375 16.1875C8.375 14.4616 9.77412 13.0625 11.5 13.0625C13.2259 13.0625 14.625 14.4616 14.625 16.1875C14.625 17.9134 13.2259 19.3125 11.5 19.3125ZM16.1875 4.44336V9.35156C16.1875 9.67515 15.9251 9.9375 15.6016 9.9375H4.27344C3.94985 9.9375 3.6875 9.67515 3.6875 9.35156V4.27344C3.6875 3.94985 3.94985 3.6875 4.27344 3.6875H15.4316C15.5871 3.6875 15.7361 3.74922 15.8459 3.85913L16.0159 4.02905C16.0703 4.08345 16.1135 4.14804 16.1429 4.21913C16.1724 4.29022 16.1875 4.36641 16.1875 4.44336Z" fill="black"/>
</svg>
