<svg width="25" height="17" viewBox="0 0 25 17" fill="none" xmlns="http://www.w3.org/2000/svg">
<path d="M24.8565 10.0665L21.7131 15.4552C21.4685 15.8746 21.1182 16.2225 20.6972 16.4643C20.2763 16.7061 19.7992 16.8333 19.3138 16.8333H1.95421C1.15026 16.8333 0.649349 15.9612 1.05443 15.2668L4.19783 9.87812C4.44246 9.45876 4.79272 9.11084 5.21372 8.86904C5.63471 8.62724 6.11173 8.5 6.59722 8.5H23.9568C24.7607 8.5 25.2616 9.37209 24.8565 10.0665ZM6.59722 7.11111H20.8333V5.02777C20.8333 3.87717 19.9006 2.94444 18.75 2.94444H11.8056L9.02778 0.166664H2.08333C0.932726 0.166664 0 1.09939 0 2.25V14.318L2.99813 9.1783C3.74193 7.90321 5.12105 7.11111 6.59722 7.11111Z" fill="black"/>
</svg>
