<svg width="25" height="20" viewBox="0 0 25 20" fill="none" xmlns="http://www.w3.org/2000/svg">
<path d="M25 10.3125V9.6875C25 9.34219 24.7203 9.0625 24.375 9.0625H13.4375V7.5H16.25C16.9402 7.5 17.5 6.94023 17.5 6.25V1.25C17.5 0.559766 16.9402 0 16.25 0H8.75C8.05977 0 7.5 0.559766 7.5 1.25V6.25C7.5 6.94023 8.05977 7.5 8.75 7.5H11.5625V9.0625H0.625C0.279687 9.0625 0 9.34219 0 9.6875V10.3125C0 10.6578 0.279687 10.9375 0.625 10.9375H4.6875V12.5H2.5C1.80977 12.5 1.25 13.0598 1.25 13.75V18.75C1.25 19.4402 1.80977 20 2.5 20H8.75C9.44023 20 10 19.4402 10 18.75V13.75C10 13.0598 9.44023 12.5 8.75 12.5H6.5625V10.9375H18.4375V12.5H16.25C15.5598 12.5 15 13.0598 15 13.75V18.75C15 19.4402 15.5598 20 16.25 20H22.5C23.1902 20 23.75 19.4402 23.75 18.75V13.75C23.75 13.0598 23.1902 12.5 22.5 12.5H20.3125V10.9375H24.375C24.7203 10.9375 25 10.6578 25 10.3125ZM10 5V2.5H15V5H10ZM7.5 17.5H3.75V15H7.5V17.5ZM21.25 17.5H17.5V15H21.25V17.5Z" fill="black"/>
</svg>
